<?xml version="1.0" encoding="UTF-8" ?>
<svg version="1.1" width="49" height="29" xmlns="http://www.w3.org/2000/svg" shape-rendering="crispEdges">
<rect x="43" y="0" width="1" height="1" fill="#2E3440" />
<rect x="43" y="1" width="1" height="1" fill="#2E3440" />
<rect x="43" y="2" width="1" height="1" fill="#2E3440" />
<rect x="43" y="3" width="1" height="1" fill="#2E3440" />
<rect x="42" y="4" width="1" height="1" fill="#2E3440" />
<rect x="43" y="4" width="1" height="1" fill="#2E3440" />
<rect x="44" y="4" width="1" height="1" fill="#2E3440" />
<rect x="42" y="5" width="1" height="1" fill="#3B4252" />
<rect x="43" y="5" width="1" height="1" fill="#3B4252" />
<rect x="44" y="5" width="1" height="1" fill="#3B4252" />
<rect x="1" y="6" width="1" height="1" fill="#2E3440" />
<rect x="2" y="6" width="1" height="1" fill="#2E3440" />
<rect x="3" y="6" width="1" height="1" fill="#2E3440" />
<rect x="4" y="6" width="1" height="1" fill="#2E3440" />
<rect x="5" y="6" width="1" height="1" fill="#2E3440" />
<rect x="6" y="6" width="1" height="1" fill="#2E3440" />
<rect x="7" y="6" width="1" height="1" fill="#2E3440" />
<rect x="8" y="6" width="1" height="1" fill="#2E3440" />
<rect x="9" y="6" width="1" height="1" fill="#2E3440" />
<rect x="10" y="6" width="1" height="1" fill="#2E3440" />
<rect x="11" y="6" width="1" height="1" fill="#2E3440" />
<rect x="12" y="6" width="1" height="1" fill="#2E3440" />
<rect x="13" y="6" width="1" height="1" fill="#2E3440" />
<rect x="14" y="6" width="1" height="1" fill="#2E3440" />
<rect x="15" y="6" width="1" height="1" fill="#2E3440" />
<rect x="16" y="6" width="1" height="1" fill="#2E3440" />
<rect x="17" y="6" width="1" height="1" fill="#2E3440" />
<rect x="18" y="6" width="1" height="1" fill="#2E3440" />
<rect x="19" y="6" width="1" height="1" fill="#2E3440" />
<rect x="20" y="6" width="1" height="1" fill="#2E3440" />
<rect x="21" y="6" width="1" height="1" fill="#2E3440" />
<rect x="22" y="6" width="1" height="1" fill="#2E3440" />
<rect x="23" y="6" width="1" height="1" fill="#2E3440" />
<rect x="24" y="6" width="1" height="1" fill="#2E3440" />
<rect x="25" y="6" width="1" height="1" fill="#2E3440" />
<rect x="26" y="6" width="1" height="1" fill="#2E3440" />
<rect x="27" y="6" width="1" height="1" fill="#2E3440" />
<rect x="28" y="6" width="1" height="1" fill="#2E3440" />
<rect x="29" y="6" width="1" height="1" fill="#2E3440" />
<rect x="30" y="6" width="1" height="1" fill="#2E3440" />
<rect x="31" y="6" width="1" height="1" fill="#2E3440" />
<rect x="32" y="6" width="1" height="1" fill="#2E3440" />
<rect x="33" y="6" width="1" height="1" fill="#2E3440" />
<rect x="34" y="6" width="1" height="1" fill="#2E3440" />
<rect x="35" y="6" width="1" height="1" fill="#2E3440" />
<rect x="36" y="6" width="1" height="1" fill="#2E3440" />
<rect x="37" y="6" width="1" height="1" fill="#2E3440" />
<rect x="38" y="6" width="1" height="1" fill="#2E3440" />
<rect x="39" y="6" width="1" height="1" fill="#2E3440" />
<rect x="40" y="6" width="1" height="1" fill="#2E3440" />
<rect x="41" y="6" width="1" height="1" fill="#2E3440" />
<rect x="42" y="6" width="1" height="1" fill="#2E3440" />
<rect x="43" y="6" width="1" height="1" fill="#2E3440" />
<rect x="44" y="6" width="1" height="1" fill="#2E3440" />
<rect x="45" y="6" width="1" height="1" fill="#2E3440" />
<rect x="46" y="6" width="1" height="1" fill="#2E3440" />
<rect x="47" y="6" width="1" height="1" fill="#2E3440" />
<rect x="1" y="7" width="1" height="1" fill="#2E3440" />
<rect x="2" y="7" width="1" height="1" fill="#5E81AC" />
<rect x="3" y="7" width="1" height="1" fill="#5E81AC" />
<rect x="4" y="7" width="1" height="1" fill="#5E81AC" />
<rect x="5" y="7" width="1" height="1" fill="#5E81AC" />
<rect x="6" y="7" width="1" height="1" fill="#5E81AC" />
<rect x="7" y="7" width="1" height="1" fill="#5E81AC" />
<rect x="8" y="7" width="1" height="1" fill="#5E81AC" />
<rect x="9" y="7" width="1" height="1" fill="#5E81AC" />
<rect x="10" y="7" width="1" height="1" fill="#5E81AC" />
<rect x="11" y="7" width="1" height="1" fill="#5E81AC" />
<rect x="12" y="7" width="1" height="1" fill="#5E81AC" />
<rect x="13" y="7" width="1" height="1" fill="#5E81AC" />
<rect x="14" y="7" width="1" height="1" fill="#5E81AC" />
<rect x="15" y="7" width="1" height="1" fill="#5E81AC" />
<rect x="16" y="7" width="1" height="1" fill="#5E81AC" />
<rect x="17" y="7" width="1" height="1" fill="#5E81AC" />
<rect x="18" y="7" width="1" height="1" fill="#5E81AC" />
<rect x="19" y="7" width="1" height="1" fill="#5E81AC" />
<rect x="20" y="7" width="1" height="1" fill="#5E81AC" />
<rect x="21" y="7" width="1" height="1" fill="#5E81AC" />
<rect x="22" y="7" width="1" height="1" fill="#5E81AC" />
<rect x="23" y="7" width="1" height="1" fill="#5E81AC" />
<rect x="24" y="7" width="1" height="1" fill="#5E81AC" />
<rect x="25" y="7" width="1" height="1" fill="#5E81AC" />
<rect x="26" y="7" width="1" height="1" fill="#5E81AC" />
<rect x="27" y="7" width="1" height="1" fill="#5E81AC" />
<rect x="28" y="7" width="1" height="1" fill="#5E81AC" />
<rect x="29" y="7" width="1" height="1" fill="#5E81AC" />
<rect x="30" y="7" width="1" height="1" fill="#5E81AC" />
<rect x="31" y="7" width="1" height="1" fill="#5E81AC" />
<rect x="32" y="7" width="1" height="1" fill="#5E81AC" />
<rect x="33" y="7" width="1" height="1" fill="#5E81AC" />
<rect x="34" y="7" width="1" height="1" fill="#5E81AC" />
<rect x="35" y="7" width="1" height="1" fill="#5E81AC" />
<rect x="36" y="7" width="1" height="1" fill="#5E81AC" />
<rect x="37" y="7" width="1" height="1" fill="#5E81AC" />
<rect x="38" y="7" width="1" height="1" fill="#5E81AC" />
<rect x="39" y="7" width="1" height="1" fill="#5E81AC" />
<rect x="40" y="7" width="1" height="1" fill="#5E81AC" />
<rect x="41" y="7" width="1" height="1" fill="#5E81AC" />
<rect x="42" y="7" width="1" height="1" fill="#5E81AC" />
<rect x="43" y="7" width="1" height="1" fill="#5E81AC" />
<rect x="44" y="7" width="1" height="1" fill="#5E81AC" />
<rect x="45" y="7" width="1" height="1" fill="#5E81AC" />
<rect x="46" y="7" width="1" height="1" fill="#5E81AC" />
<rect x="47" y="7" width="1" height="1" fill="#2E3440" />
<rect x="1" y="8" width="1" height="1" fill="#2E3440" />
<rect x="2" y="8" width="1" height="1" fill="#5E81AC" />
<rect x="3" y="8" width="1" height="1" fill="#2E3440" />
<rect x="4" y="8" width="1" height="1" fill="#2E3440" />
<rect x="5" y="8" width="1" height="1" fill="#3B4252" />
<rect x="6" y="8" width="1" height="1" fill="#3B4252" />
<rect x="7" y="8" width="1" height="1" fill="#3B4252" />
<rect x="8" y="8" width="1" height="1" fill="#2E3440" />
<rect x="9" y="8" width="1" height="1" fill="#3B4252" />
<rect x="10" y="8" width="1" height="1" fill="#3B4252" />
<rect x="11" y="8" width="1" height="1" fill="#3B4252" />
<rect x="12" y="8" width="1" height="1" fill="#2E3440" />
<rect x="13" y="8" width="1" height="1" fill="#3B4252" />
<rect x="14" y="8" width="1" height="1" fill="#3B4252" />
<rect x="15" y="8" width="1" height="1" fill="#3B4252" />
<rect x="16" y="8" width="1" height="1" fill="#2E3440" />
<rect x="17" y="8" width="1" height="1" fill="#3B4252" />
<rect x="18" y="8" width="1" height="1" fill="#3B4252" />
<rect x="19" y="8" width="1" height="1" fill="#3B4252" />
<rect x="20" y="8" width="1" height="1" fill="#2E3440" />
<rect x="21" y="8" width="1" height="1" fill="#3B4252" />
<rect x="22" y="8" width="1" height="1" fill="#3B4252" />
<rect x="23" y="8" width="1" height="1" fill="#3B4252" />
<rect x="24" y="8" width="1" height="1" fill="#3B4252" />
<rect x="25" y="8" width="1" height="1" fill="#2E3440" />
<rect x="26" y="8" width="1" height="1" fill="#2E3440" />
<rect x="27" y="8" width="1" height="1" fill="#3B4252" />
<rect x="28" y="8" width="1" height="1" fill="#3B4252" />
<rect x="29" y="8" width="1" height="1" fill="#3B4252" />
<rect x="30" y="8" width="1" height="1" fill="#2E3440" />
<rect x="31" y="8" width="1" height="1" fill="#3B4252" />
<rect x="32" y="8" width="1" height="1" fill="#3B4252" />
<rect x="33" y="8" width="1" height="1" fill="#3B4252" />
<rect x="34" y="8" width="1" height="1" fill="#2E3440" />
<rect x="35" y="8" width="1" height="1" fill="#3B4252" />
<rect x="36" y="8" width="1" height="1" fill="#3B4252" />
<rect x="37" y="8" width="1" height="1" fill="#3B4252" />
<rect x="38" y="8" width="1" height="1" fill="#2E3440" />
<rect x="39" y="8" width="1" height="1" fill="#3B4252" />
<rect x="40" y="8" width="1" height="1" fill="#3B4252" />
<rect x="41" y="8" width="1" height="1" fill="#3B4252" />
<rect x="42" y="8" width="1" height="1" fill="#2E3440" />
<rect x="43" y="8" width="1" height="1" fill="#3B4252" />
<rect x="44" y="8" width="1" height="1" fill="#3B4252" />
<rect x="45" y="8" width="1" height="1" fill="#3B4252" />
<rect x="46" y="8" width="1" height="1" fill="#5E81AC" />
<rect x="47" y="8" width="1" height="1" fill="#2E3440" />
<rect x="1" y="9" width="1" height="1" fill="#2E3440" />
<rect x="2" y="9" width="1" height="1" fill="#5E81AC" />
<rect x="3" y="9" width="1" height="1" fill="#2E3440" />
<rect x="4" y="9" width="1" height="1" fill="#B48EAD" />
<rect x="5" y="9" width="1" height="1" fill="#B48EAD" />
<rect x="6" y="9" width="1" height="1" fill="#B48EAD" />
<rect x="7" y="9" width="1" height="1" fill="#3B4252" />
<rect x="8" y="9" width="1" height="1" fill="#ECEFF4" />
<rect x="9" y="9" width="1" height="1" fill="#ECEFF4" />
<rect x="10" y="9" width="1" height="1" fill="#ECEFF4" />
<rect x="11" y="9" width="1" height="1" fill="#3B4252" />
<rect x="12" y="9" width="1" height="1" fill="#ECEFF4" />
<rect x="13" y="9" width="1" height="1" fill="#ECEFF4" />
<rect x="14" y="9" width="1" height="1" fill="#ECEFF4" />
<rect x="15" y="9" width="1" height="1" fill="#3B4252" />
<rect x="16" y="9" width="1" height="1" fill="#ECEFF4" />
<rect x="17" y="9" width="1" height="1" fill="#ECEFF4" />
<rect x="18" y="9" width="1" height="1" fill="#ECEFF4" />
<rect x="19" y="9" width="1" height="1" fill="#3B4252" />
<rect x="20" y="9" width="1" height="1" fill="#ECEFF4" />
<rect x="21" y="9" width="1" height="1" fill="#ECEFF4" />
<rect x="22" y="9" width="1" height="1" fill="#ECEFF4" />
<rect x="23" y="9" width="1" height="1" fill="#3B4252" />
<rect x="24" y="9" width="1" height="1" fill="#3B4252" />
<rect x="25" y="9" width="1" height="1" fill="#2E3440" />
<rect x="26" y="9" width="1" height="1" fill="#ECEFF4" />
<rect x="27" y="9" width="1" height="1" fill="#ECEFF4" />
<rect x="28" y="9" width="1" height="1" fill="#ECEFF4" />
<rect x="29" y="9" width="1" height="1" fill="#3B4252" />
<rect x="30" y="9" width="1" height="1" fill="#ECEFF4" />
<rect x="31" y="9" width="1" height="1" fill="#ECEFF4" />
<rect x="32" y="9" width="1" height="1" fill="#ECEFF4" />
<rect x="33" y="9" width="1" height="1" fill="#3B4252" />
<rect x="34" y="9" width="1" height="1" fill="#ECEFF4" />
<rect x="35" y="9" width="1" height="1" fill="#ECEFF4" />
<rect x="36" y="9" width="1" height="1" fill="#ECEFF4" />
<rect x="37" y="9" width="1" height="1" fill="#3B4252" />
<rect x="38" y="9" width="1" height="1" fill="#ECEFF4" />
<rect x="39" y="9" width="1" height="1" fill="#ECEFF4" />
<rect x="40" y="9" width="1" height="1" fill="#ECEFF4" />
<rect x="41" y="9" width="1" height="1" fill="#3B4252" />
<rect x="42" y="9" width="1" height="1" fill="#ECEFF4" />
<rect x="43" y="9" width="1" height="1" fill="#ECEFF4" />
<rect x="44" y="9" width="1" height="1" fill="#ECEFF4" />
<rect x="45" y="9" width="1" height="1" fill="#3B4252" />
<rect x="46" y="9" width="1" height="1" fill="#5E81AC" />
<rect x="47" y="9" width="1" height="1" fill="#2E3440" />
<rect x="1" y="10" width="1" height="1" fill="#2E3440" />
<rect x="2" y="10" width="1" height="1" fill="#5E81AC" />
<rect x="3" y="10" width="1" height="1" fill="#2E3440" />
<rect x="4" y="10" width="1" height="1" fill="#B48EAD" />
<rect x="5" y="10" width="1" height="1" fill="#B48EAD" />
<rect x="6" y="10" width="1" height="1" fill="#B48EAD" />
<rect x="7" y="10" width="1" height="1" fill="#3B4252" />
<rect x="8" y="10" width="1" height="1" fill="#ECEFF4" />
<rect x="9" y="10" width="1" height="1" fill="#ECEFF4" />
<rect x="10" y="10" width="1" height="1" fill="#ECEFF4" />
<rect x="11" y="10" width="1" height="1" fill="#3B4252" />
<rect x="12" y="10" width="1" height="1" fill="#ECEFF4" />
<rect x="13" y="10" width="1" height="1" fill="#ECEFF4" />
<rect x="14" y="10" width="1" height="1" fill="#ECEFF4" />
<rect x="15" y="10" width="1" height="1" fill="#3B4252" />
<rect x="16" y="10" width="1" height="1" fill="#ECEFF4" />
<rect x="17" y="10" width="1" height="1" fill="#ECEFF4" />
<rect x="18" y="10" width="1" height="1" fill="#ECEFF4" />
<rect x="19" y="10" width="1" height="1" fill="#3B4252" />
<rect x="20" y="10" width="1" height="1" fill="#ECEFF4" />
<rect x="21" y="10" width="1" height="1" fill="#ECEFF4" />
<rect x="22" y="10" width="1" height="1" fill="#ECEFF4" />
<rect x="23" y="10" width="1" height="1" fill="#3B4252" />
<rect x="24" y="10" width="1" height="1" fill="#3B4252" />
<rect x="25" y="10" width="1" height="1" fill="#2E3440" />
<rect x="26" y="10" width="1" height="1" fill="#ECEFF4" />
<rect x="27" y="10" width="1" height="1" fill="#ECEFF4" />
<rect x="28" y="10" width="1" height="1" fill="#ECEFF4" />
<rect x="29" y="10" width="1" height="1" fill="#3B4252" />
<rect x="30" y="10" width="1" height="1" fill="#ECEFF4" />
<rect x="31" y="10" width="1" height="1" fill="#ECEFF4" />
<rect x="32" y="10" width="1" height="1" fill="#ECEFF4" />
<rect x="33" y="10" width="1" height="1" fill="#3B4252" />
<rect x="34" y="10" width="1" height="1" fill="#ECEFF4" />
<rect x="35" y="10" width="1" height="1" fill="#ECEFF4" />
<rect x="36" y="10" width="1" height="1" fill="#ECEFF4" />
<rect x="37" y="10" width="1" height="1" fill="#3B4252" />
<rect x="38" y="10" width="1" height="1" fill="#ECEFF4" />
<rect x="39" y="10" width="1" height="1" fill="#ECEFF4" />
<rect x="40" y="10" width="1" height="1" fill="#ECEFF4" />
<rect x="41" y="10" width="1" height="1" fill="#3B4252" />
<rect x="42" y="10" width="1" height="1" fill="#ECEFF4" />
<rect x="43" y="10" width="1" height="1" fill="#ECEFF4" />
<rect x="44" y="10" width="1" height="1" fill="#ECEFF4" />
<rect x="45" y="10" width="1" height="1" fill="#3B4252" />
<rect x="46" y="10" width="1" height="1" fill="#5E81AC" />
<rect x="47" y="10" width="1" height="1" fill="#2E3440" />
<rect x="1" y="11" width="1" height="1" fill="#2E3440" />
<rect x="2" y="11" width="1" height="1" fill="#5E81AC" />
<rect x="3" y="11" width="1" height="1" fill="#2E3440" />
<rect x="4" y="11" width="1" height="1" fill="#AF869C" />
<rect x="5" y="11" width="1" height="1" fill="#AF869C" />
<rect x="6" y="11" width="1" height="1" fill="#AF869C" />
<rect x="7" y="11" width="1" height="1" fill="#2E3440" />
<rect x="8" y="11" width="1" height="1" fill="#D8DEE9" />
<rect x="9" y="11" width="1" height="1" fill="#D8DEE9" />
<rect x="10" y="11" width="1" height="1" fill="#D8DEE9" />
<rect x="11" y="11" width="1" height="1" fill="#2E3440" />
<rect x="12" y="11" width="1" height="1" fill="#D8DEE9" />
<rect x="13" y="11" width="1" height="1" fill="#D8DEE9" />
<rect x="14" y="11" width="1" height="1" fill="#D8DEE9" />
<rect x="15" y="11" width="1" height="1" fill="#2E3440" />
<rect x="16" y="11" width="1" height="1" fill="#D8DEE9" />
<rect x="17" y="11" width="1" height="1" fill="#D8DEE9" />
<rect x="18" y="11" width="1" height="1" fill="#D8DEE9" />
<rect x="19" y="11" width="1" height="1" fill="#2E3440" />
<rect x="20" y="11" width="1" height="1" fill="#D8DEE9" />
<rect x="21" y="11" width="1" height="1" fill="#D8DEE9" />
<rect x="22" y="11" width="1" height="1" fill="#D8DEE9" />
<rect x="23" y="11" width="1" height="1" fill="#2E3440" />
<rect x="24" y="11" width="1" height="1" fill="#3B4252" />
<rect x="25" y="11" width="1" height="1" fill="#2E3440" />
<rect x="26" y="11" width="1" height="1" fill="#D8DEE9" />
<rect x="27" y="11" width="1" height="1" fill="#D8DEE9" />
<rect x="28" y="11" width="1" height="1" fill="#D8DEE9" />
<rect x="29" y="11" width="1" height="1" fill="#2E3440" />
<rect x="30" y="11" width="1" height="1" fill="#D8DEE9" />
<rect x="31" y="11" width="1" height="1" fill="#D8DEE9" />
<rect x="32" y="11" width="1" height="1" fill="#D8DEE9" />
<rect x="33" y="11" width="1" height="1" fill="#2E3440" />
<rect x="34" y="11" width="1" height="1" fill="#D8DEE9" />
<rect x="35" y="11" width="1" height="1" fill="#D8DEE9" />
<rect x="36" y="11" width="1" height="1" fill="#D8DEE9" />
<rect x="37" y="11" width="1" height="1" fill="#2E3440" />
<rect x="38" y="11" width="1" height="1" fill="#D8DEE9" />
<rect x="39" y="11" width="1" height="1" fill="#D8DEE9" />
<rect x="40" y="11" width="1" height="1" fill="#D8DEE9" />
<rect x="41" y="11" width="1" height="1" fill="#2E3440" />
<rect x="42" y="11" width="1" height="1" fill="#D8DEE9" />
<rect x="43" y="11" width="1" height="1" fill="#D8DEE9" />
<rect x="44" y="11" width="1" height="1" fill="#D8DEE9" />
<rect x="45" y="11" width="1" height="1" fill="#2E3440" />
<rect x="46" y="11" width="1" height="1" fill="#5E81AC" />
<rect x="47" y="11" width="1" height="1" fill="#2E3440" />
<rect x="1" y="12" width="1" height="1" fill="#2E3440" />
<rect x="2" y="12" width="1" height="1" fill="#5E81AC" />
<rect x="3" y="12" width="1" height="1" fill="#2E3440" />
<rect x="4" y="12" width="1" height="1" fill="#2E3440" />
<rect x="5" y="12" width="1" height="1" fill="#3B4252" />
<rect x="6" y="12" width="1" height="1" fill="#3B4252" />
<rect x="7" y="12" width="1" height="1" fill="#3B4252" />
<rect x="8" y="12" width="1" height="1" fill="#2E3440" />
<rect x="9" y="12" width="1" height="1" fill="#3B4252" />
<rect x="10" y="12" width="1" height="1" fill="#3B4252" />
<rect x="11" y="12" width="1" height="1" fill="#3B4252" />
<rect x="12" y="12" width="1" height="1" fill="#2E3440" />
<rect x="13" y="12" width="1" height="1" fill="#3B4252" />
<rect x="14" y="12" width="1" height="1" fill="#3B4252" />
<rect x="15" y="12" width="1" height="1" fill="#3B4252" />
<rect x="16" y="12" width="1" height="1" fill="#2E3440" />
<rect x="17" y="12" width="1" height="1" fill="#3B4252" />
<rect x="18" y="12" width="1" height="1" fill="#3B4252" />
<rect x="19" y="12" width="1" height="1" fill="#3B4252" />
<rect x="20" y="12" width="1" height="1" fill="#2E3440" />
<rect x="21" y="12" width="1" height="1" fill="#3B4252" />
<rect x="22" y="12" width="1" height="1" fill="#3B4252" />
<rect x="23" y="12" width="1" height="1" fill="#3B4252" />
<rect x="24" y="12" width="1" height="1" fill="#3B4252" />
<rect x="25" y="12" width="1" height="1" fill="#2E3440" />
<rect x="26" y="12" width="1" height="1" fill="#2E3440" />
<rect x="27" y="12" width="1" height="1" fill="#3B4252" />
<rect x="28" y="12" width="1" height="1" fill="#3B4252" />
<rect x="29" y="12" width="1" height="1" fill="#3B4252" />
<rect x="30" y="12" width="1" height="1" fill="#2E3440" />
<rect x="31" y="12" width="1" height="1" fill="#3B4252" />
<rect x="32" y="12" width="1" height="1" fill="#3B4252" />
<rect x="33" y="12" width="1" height="1" fill="#3B4252" />
<rect x="34" y="12" width="1" height="1" fill="#2E3440" />
<rect x="35" y="12" width="1" height="1" fill="#3B4252" />
<rect x="36" y="12" width="1" height="1" fill="#3B4252" />
<rect x="37" y="12" width="1" height="1" fill="#3B4252" />
<rect x="38" y="12" width="1" height="1" fill="#2E3440" />
<rect x="39" y="12" width="1" height="1" fill="#3B4252" />
<rect x="40" y="12" width="1" height="1" fill="#3B4252" />
<rect x="41" y="12" width="1" height="1" fill="#3B4252" />
<rect x="42" y="12" width="1" height="1" fill="#2E3440" />
<rect x="43" y="12" width="1" height="1" fill="#3B4252" />
<rect x="44" y="12" width="1" height="1" fill="#3B4252" />
<rect x="45" y="12" width="1" height="1" fill="#3B4252" />
<rect x="46" y="12" width="1" height="1" fill="#5E81AC" />
<rect x="47" y="12" width="1" height="1" fill="#2E3440" />
<rect x="1" y="13" width="1" height="1" fill="#2E3440" />
<rect x="2" y="13" width="1" height="1" fill="#5E81AC" />
<rect x="3" y="13" width="1" height="1" fill="#2E3440" />
<rect x="4" y="13" width="1" height="1" fill="#ECEFF4" />
<rect x="5" y="13" width="1" height="1" fill="#ECEFF4" />
<rect x="6" y="13" width="1" height="1" fill="#ECEFF4" />
<rect x="7" y="13" width="1" height="1" fill="#3B4252" />
<rect x="8" y="13" width="1" height="1" fill="#ECEFF4" />
<rect x="9" y="13" width="1" height="1" fill="#ECEFF4" />
<rect x="10" y="13" width="1" height="1" fill="#ECEFF4" />
<rect x="11" y="13" width="1" height="1" fill="#3B4252" />
<rect x="12" y="13" width="1" height="1" fill="#ECEFF4" />
<rect x="13" y="13" width="1" height="1" fill="#ECEFF4" />
<rect x="14" y="13" width="1" height="1" fill="#ECEFF4" />
<rect x="15" y="13" width="1" height="1" fill="#3B4252" />
<rect x="16" y="13" width="1" height="1" fill="#ECEFF4" />
<rect x="17" y="13" width="1" height="1" fill="#ECEFF4" />
<rect x="18" y="13" width="1" height="1" fill="#ECEFF4" />
<rect x="19" y="13" width="1" height="1" fill="#3B4252" />
<rect x="20" y="13" width="1" height="1" fill="#ECEFF4" />
<rect x="21" y="13" width="1" height="1" fill="#ECEFF4" />
<rect x="22" y="13" width="1" height="1" fill="#ECEFF4" />
<rect x="23" y="13" width="1" height="1" fill="#3B4252" />
<rect x="24" y="13" width="1" height="1" fill="#3B4252" />
<rect x="25" y="13" width="1" height="1" fill="#2E3440" />
<rect x="26" y="13" width="1" height="1" fill="#ECEFF4" />
<rect x="27" y="13" width="1" height="1" fill="#ECEFF4" />
<rect x="28" y="13" width="1" height="1" fill="#ECEFF4" />
<rect x="29" y="13" width="1" height="1" fill="#3B4252" />
<rect x="30" y="13" width="1" height="1" fill="#ECEFF4" />
<rect x="31" y="13" width="1" height="1" fill="#ECEFF4" />
<rect x="32" y="13" width="1" height="1" fill="#ECEFF4" />
<rect x="33" y="13" width="1" height="1" fill="#3B4252" />
<rect x="34" y="13" width="1" height="1" fill="#ECEFF4" />
<rect x="35" y="13" width="1" height="1" fill="#ECEFF4" />
<rect x="36" y="13" width="1" height="1" fill="#ECEFF4" />
<rect x="37" y="13" width="1" height="1" fill="#3B4252" />
<rect x="38" y="13" width="1" height="1" fill="#ECEFF4" />
<rect x="39" y="13" width="1" height="1" fill="#ECEFF4" />
<rect x="40" y="13" width="1" height="1" fill="#ECEFF4" />
<rect x="41" y="13" width="1" height="1" fill="#3B4252" />
<rect x="42" y="13" width="1" height="1" fill="#ECEFF4" />
<rect x="43" y="13" width="1" height="1" fill="#ECEFF4" />
<rect x="44" y="13" width="1" height="1" fill="#ECEFF4" />
<rect x="45" y="13" width="1" height="1" fill="#3B4252" />
<rect x="46" y="13" width="1" height="1" fill="#5E81AC" />
<rect x="47" y="13" width="1" height="1" fill="#2E3440" />
<rect x="1" y="14" width="1" height="1" fill="#2E3440" />
<rect x="2" y="14" width="1" height="1" fill="#5E81AC" />
<rect x="3" y="14" width="1" height="1" fill="#2E3440" />
<rect x="4" y="14" width="1" height="1" fill="#ECEFF4" />
<rect x="5" y="14" width="1" height="1" fill="#ECEFF4" />
<rect x="6" y="14" width="1" height="1" fill="#ECEFF4" />
<rect x="7" y="14" width="1" height="1" fill="#3B4252" />
<rect x="8" y="14" width="1" height="1" fill="#ECEFF4" />
<rect x="9" y="14" width="1" height="1" fill="#ECEFF4" />
<rect x="10" y="14" width="1" height="1" fill="#ECEFF4" />
<rect x="11" y="14" width="1" height="1" fill="#3B4252" />
<rect x="12" y="14" width="1" height="1" fill="#ECEFF4" />
<rect x="13" y="14" width="1" height="1" fill="#ECEFF4" />
<rect x="14" y="14" width="1" height="1" fill="#ECEFF4" />
<rect x="15" y="14" width="1" height="1" fill="#3B4252" />
<rect x="16" y="14" width="1" height="1" fill="#ECEFF4" />
<rect x="17" y="14" width="1" height="1" fill="#ECEFF4" />
<rect x="18" y="14" width="1" height="1" fill="#ECEFF4" />
<rect x="19" y="14" width="1" height="1" fill="#3B4252" />
<rect x="20" y="14" width="1" height="1" fill="#ECEFF4" />
<rect x="21" y="14" width="1" height="1" fill="#ECEFF4" />
<rect x="22" y="14" width="1" height="1" fill="#ECEFF4" />
<rect x="23" y="14" width="1" height="1" fill="#3B4252" />
<rect x="24" y="14" width="1" height="1" fill="#3B4252" />
<rect x="25" y="14" width="1" height="1" fill="#2E3440" />
<rect x="26" y="14" width="1" height="1" fill="#ECEFF4" />
<rect x="27" y="14" width="1" height="1" fill="#ECEFF4" />
<rect x="28" y="14" width="1" height="1" fill="#ECEFF4" />
<rect x="29" y="14" width="1" height="1" fill="#3B4252" />
<rect x="30" y="14" width="1" height="1" fill="#ECEFF4" />
<rect x="31" y="14" width="1" height="1" fill="#ECEFF4" />
<rect x="32" y="14" width="1" height="1" fill="#ECEFF4" />
<rect x="33" y="14" width="1" height="1" fill="#3B4252" />
<rect x="34" y="14" width="1" height="1" fill="#ECEFF4" />
<rect x="35" y="14" width="1" height="1" fill="#ECEFF4" />
<rect x="36" y="14" width="1" height="1" fill="#ECEFF4" />
<rect x="37" y="14" width="1" height="1" fill="#3B4252" />
<rect x="38" y="14" width="1" height="1" fill="#ECEFF4" />
<rect x="39" y="14" width="1" height="1" fill="#ECEFF4" />
<rect x="40" y="14" width="1" height="1" fill="#ECEFF4" />
<rect x="41" y="14" width="1" height="1" fill="#3B4252" />
<rect x="42" y="14" width="1" height="1" fill="#ECEFF4" />
<rect x="43" y="14" width="1" height="1" fill="#ECEFF4" />
<rect x="44" y="14" width="1" height="1" fill="#ECEFF4" />
<rect x="45" y="14" width="1" height="1" fill="#3B4252" />
<rect x="46" y="14" width="1" height="1" fill="#5E81AC" />
<rect x="47" y="14" width="1" height="1" fill="#2E3440" />
<rect x="1" y="15" width="1" height="1" fill="#2E3440" />
<rect x="2" y="15" width="1" height="1" fill="#5E81AC" />
<rect x="3" y="15" width="1" height="1" fill="#2E3440" />
<rect x="4" y="15" width="1" height="1" fill="#D8DEE9" />
<rect x="5" y="15" width="1" height="1" fill="#D8DEE9" />
<rect x="6" y="15" width="1" height="1" fill="#D8DEE9" />
<rect x="7" y="15" width="1" height="1" fill="#2E3440" />
<rect x="8" y="15" width="1" height="1" fill="#D8DEE9" />
<rect x="9" y="15" width="1" height="1" fill="#D8DEE9" />
<rect x="10" y="15" width="1" height="1" fill="#D8DEE9" />
<rect x="11" y="15" width="1" height="1" fill="#2E3440" />
<rect x="12" y="15" width="1" height="1" fill="#D8DEE9" />
<rect x="13" y="15" width="1" height="1" fill="#D8DEE9" />
<rect x="14" y="15" width="1" height="1" fill="#D8DEE9" />
<rect x="15" y="15" width="1" height="1" fill="#2E3440" />
<rect x="16" y="15" width="1" height="1" fill="#D8DEE9" />
<rect x="17" y="15" width="1" height="1" fill="#D8DEE9" />
<rect x="18" y="15" width="1" height="1" fill="#D8DEE9" />
<rect x="19" y="15" width="1" height="1" fill="#2E3440" />
<rect x="20" y="15" width="1" height="1" fill="#D8DEE9" />
<rect x="21" y="15" width="1" height="1" fill="#D8DEE9" />
<rect x="22" y="15" width="1" height="1" fill="#D8DEE9" />
<rect x="23" y="15" width="1" height="1" fill="#2E3440" />
<rect x="24" y="15" width="1" height="1" fill="#3B4252" />
<rect x="25" y="15" width="1" height="1" fill="#2E3440" />
<rect x="26" y="15" width="1" height="1" fill="#D8DEE9" />
<rect x="27" y="15" width="1" height="1" fill="#D8DEE9" />
<rect x="28" y="15" width="1" height="1" fill="#D8DEE9" />
<rect x="29" y="15" width="1" height="1" fill="#2E3440" />
<rect x="30" y="15" width="1" height="1" fill="#D8DEE9" />
<rect x="31" y="15" width="1" height="1" fill="#D8DEE9" />
<rect x="32" y="15" width="1" height="1" fill="#D8DEE9" />
<rect x="33" y="15" width="1" height="1" fill="#2E3440" />
<rect x="34" y="15" width="1" height="1" fill="#D8DEE9" />
<rect x="35" y="15" width="1" height="1" fill="#D8DEE9" />
<rect x="36" y="15" width="1" height="1" fill="#D8DEE9" />
<rect x="37" y="15" width="1" height="1" fill="#2E3440" />
<rect x="38" y="15" width="1" height="1" fill="#D8DEE9" />
<rect x="39" y="15" width="1" height="1" fill="#D8DEE9" />
<rect x="40" y="15" width="1" height="1" fill="#D8DEE9" />
<rect x="41" y="15" width="1" height="1" fill="#2E3440" />
<rect x="42" y="15" width="1" height="1" fill="#D8DEE9" />
<rect x="43" y="15" width="1" height="1" fill="#D8DEE9" />
<rect x="44" y="15" width="1" height="1" fill="#D8DEE9" />
<rect x="45" y="15" width="1" height="1" fill="#2E3440" />
<rect x="46" y="15" width="1" height="1" fill="#5E81AC" />
<rect x="47" y="15" width="1" height="1" fill="#2E3440" />
<rect x="1" y="16" width="1" height="1" fill="#2E3440" />
<rect x="2" y="16" width="1" height="1" fill="#5E81AC" />
<rect x="3" y="16" width="1" height="1" fill="#2E3440" />
<rect x="4" y="16" width="1" height="1" fill="#2E3440" />
<rect x="5" y="16" width="1" height="1" fill="#3B4252" />
<rect x="6" y="16" width="1" height="1" fill="#3B4252" />
<rect x="7" y="16" width="1" height="1" fill="#3B4252" />
<rect x="8" y="16" width="1" height="1" fill="#2E3440" />
<rect x="9" y="16" width="1" height="1" fill="#3B4252" />
<rect x="10" y="16" width="1" height="1" fill="#3B4252" />
<rect x="11" y="16" width="1" height="1" fill="#3B4252" />
<rect x="12" y="16" width="1" height="1" fill="#2E3440" />
<rect x="13" y="16" width="1" height="1" fill="#3B4252" />
<rect x="14" y="16" width="1" height="1" fill="#3B4252" />
<rect x="15" y="16" width="1" height="1" fill="#3B4252" />
<rect x="16" y="16" width="1" height="1" fill="#2E3440" />
<rect x="17" y="16" width="1" height="1" fill="#3B4252" />
<rect x="18" y="16" width="1" height="1" fill="#3B4252" />
<rect x="19" y="16" width="1" height="1" fill="#3B4252" />
<rect x="20" y="16" width="1" height="1" fill="#2E3440" />
<rect x="21" y="16" width="1" height="1" fill="#3B4252" />
<rect x="22" y="16" width="1" height="1" fill="#3B4252" />
<rect x="23" y="16" width="1" height="1" fill="#3B4252" />
<rect x="24" y="16" width="1" height="1" fill="#3B4252" />
<rect x="25" y="16" width="1" height="1" fill="#2E3440" />
<rect x="26" y="16" width="1" height="1" fill="#2E3440" />
<rect x="27" y="16" width="1" height="1" fill="#3B4252" />
<rect x="28" y="16" width="1" height="1" fill="#3B4252" />
<rect x="29" y="16" width="1" height="1" fill="#3B4252" />
<rect x="30" y="16" width="1" height="1" fill="#2E3440" />
<rect x="31" y="16" width="1" height="1" fill="#3B4252" />
<rect x="32" y="16" width="1" height="1" fill="#3B4252" />
<rect x="33" y="16" width="1" height="1" fill="#3B4252" />
<rect x="34" y="16" width="1" height="1" fill="#2E3440" />
<rect x="35" y="16" width="1" height="1" fill="#3B4252" />
<rect x="36" y="16" width="1" height="1" fill="#3B4252" />
<rect x="37" y="16" width="1" height="1" fill="#3B4252" />
<rect x="38" y="16" width="1" height="1" fill="#2E3440" />
<rect x="39" y="16" width="1" height="1" fill="#3B4252" />
<rect x="40" y="16" width="1" height="1" fill="#3B4252" />
<rect x="41" y="16" width="1" height="1" fill="#3B4252" />
<rect x="42" y="16" width="1" height="1" fill="#2E3440" />
<rect x="43" y="16" width="1" height="1" fill="#3B4252" />
<rect x="44" y="16" width="1" height="1" fill="#3B4252" />
<rect x="45" y="16" width="1" height="1" fill="#3B4252" />
<rect x="46" y="16" width="1" height="1" fill="#5E81AC" />
<rect x="47" y="16" width="1" height="1" fill="#2E3440" />
<rect x="1" y="17" width="1" height="1" fill="#2E3440" />
<rect x="2" y="17" width="1" height="1" fill="#5E81AC" />
<rect x="3" y="17" width="1" height="1" fill="#2E3440" />
<rect x="4" y="17" width="1" height="1" fill="#ECEFF4" />
<rect x="5" y="17" width="1" height="1" fill="#ECEFF4" />
<rect x="6" y="17" width="1" height="1" fill="#ECEFF4" />
<rect x="7" y="17" width="1" height="1" fill="#3B4252" />
<rect x="8" y="17" width="1" height="1" fill="#ECEFF4" />
<rect x="9" y="17" width="1" height="1" fill="#ECEFF4" />
<rect x="10" y="17" width="1" height="1" fill="#ECEFF4" />
<rect x="11" y="17" width="1" height="1" fill="#3B4252" />
<rect x="12" y="17" width="1" height="1" fill="#ECEFF4" />
<rect x="13" y="17" width="1" height="1" fill="#ECEFF4" />
<rect x="14" y="17" width="1" height="1" fill="#ECEFF4" />
<rect x="15" y="17" width="1" height="1" fill="#3B4252" />
<rect x="16" y="17" width="1" height="1" fill="#ECEFF4" />
<rect x="17" y="17" width="1" height="1" fill="#ECEFF4" />
<rect x="18" y="17" width="1" height="1" fill="#ECEFF4" />
<rect x="19" y="17" width="1" height="1" fill="#3B4252" />
<rect x="20" y="17" width="1" height="1" fill="#ECEFF4" />
<rect x="21" y="17" width="1" height="1" fill="#ECEFF4" />
<rect x="22" y="17" width="1" height="1" fill="#ECEFF4" />
<rect x="23" y="17" width="1" height="1" fill="#3B4252" />
<rect x="24" y="17" width="1" height="1" fill="#3B4252" />
<rect x="25" y="17" width="1" height="1" fill="#2E3440" />
<rect x="26" y="17" width="1" height="1" fill="#ECEFF4" />
<rect x="27" y="17" width="1" height="1" fill="#ECEFF4" />
<rect x="28" y="17" width="1" height="1" fill="#ECEFF4" />
<rect x="29" y="17" width="1" height="1" fill="#3B4252" />
<rect x="30" y="17" width="1" height="1" fill="#ECEFF4" />
<rect x="31" y="17" width="1" height="1" fill="#ECEFF4" />
<rect x="32" y="17" width="1" height="1" fill="#ECEFF4" />
<rect x="33" y="17" width="1" height="1" fill="#3B4252" />
<rect x="34" y="17" width="1" height="1" fill="#ECEFF4" />
<rect x="35" y="17" width="1" height="1" fill="#ECEFF4" />
<rect x="36" y="17" width="1" height="1" fill="#ECEFF4" />
<rect x="37" y="17" width="1" height="1" fill="#3B4252" />
<rect x="38" y="17" width="1" height="1" fill="#ECEFF4" />
<rect x="39" y="17" width="1" height="1" fill="#ECEFF4" />
<rect x="40" y="17" width="1" height="1" fill="#ECEFF4" />
<rect x="41" y="17" width="1" height="1" fill="#3B4252" />
<rect x="42" y="17" width="1" height="1" fill="#ECEFF4" />
<rect x="43" y="17" width="1" height="1" fill="#ECEFF4" />
<rect x="44" y="17" width="1" height="1" fill="#ECEFF4" />
<rect x="45" y="17" width="1" height="1" fill="#3B4252" />
<rect x="46" y="17" width="1" height="1" fill="#5E81AC" />
<rect x="47" y="17" width="1" height="1" fill="#2E3440" />
<rect x="1" y="18" width="1" height="1" fill="#2E3440" />
<rect x="2" y="18" width="1" height="1" fill="#5E81AC" />
<rect x="3" y="18" width="1" height="1" fill="#2E3440" />
<rect x="4" y="18" width="1" height="1" fill="#ECEFF4" />
<rect x="5" y="18" width="1" height="1" fill="#ECEFF4" />
<rect x="6" y="18" width="1" height="1" fill="#ECEFF4" />
<rect x="7" y="18" width="1" height="1" fill="#3B4252" />
<rect x="8" y="18" width="1" height="1" fill="#ECEFF4" />
<rect x="9" y="18" width="1" height="1" fill="#ECEFF4" />
<rect x="10" y="18" width="1" height="1" fill="#ECEFF4" />
<rect x="11" y="18" width="1" height="1" fill="#3B4252" />
<rect x="12" y="18" width="1" height="1" fill="#ECEFF4" />
<rect x="13" y="18" width="1" height="1" fill="#ECEFF4" />
<rect x="14" y="18" width="1" height="1" fill="#ECEFF4" />
<rect x="15" y="18" width="1" height="1" fill="#3B4252" />
<rect x="16" y="18" width="1" height="1" fill="#ECEFF4" />
<rect x="17" y="18" width="1" height="1" fill="#ECEFF4" />
<rect x="18" y="18" width="1" height="1" fill="#ECEFF4" />
<rect x="19" y="18" width="1" height="1" fill="#3B4252" />
<rect x="20" y="18" width="1" height="1" fill="#ECEFF4" />
<rect x="21" y="18" width="1" height="1" fill="#ECEFF4" />
<rect x="22" y="18" width="1" height="1" fill="#ECEFF4" />
<rect x="23" y="18" width="1" height="1" fill="#3B4252" />
<rect x="24" y="18" width="1" height="1" fill="#3B4252" />
<rect x="25" y="18" width="1" height="1" fill="#2E3440" />
<rect x="26" y="18" width="1" height="1" fill="#ECEFF4" />
<rect x="27" y="18" width="1" height="1" fill="#ECEFF4" />
<rect x="28" y="18" width="1" height="1" fill="#ECEFF4" />
<rect x="29" y="18" width="1" height="1" fill="#3B4252" />
<rect x="30" y="18" width="1" height="1" fill="#ECEFF4" />
<rect x="31" y="18" width="1" height="1" fill="#ECEFF4" />
<rect x="32" y="18" width="1" height="1" fill="#ECEFF4" />
<rect x="33" y="18" width="1" height="1" fill="#3B4252" />
<rect x="34" y="18" width="1" height="1" fill="#ECEFF4" />
<rect x="35" y="18" width="1" height="1" fill="#ECEFF4" />
<rect x="36" y="18" width="1" height="1" fill="#ECEFF4" />
<rect x="37" y="18" width="1" height="1" fill="#3B4252" />
<rect x="38" y="18" width="1" height="1" fill="#ECEFF4" />
<rect x="39" y="18" width="1" height="1" fill="#ECEFF4" />
<rect x="40" y="18" width="1" height="1" fill="#ECEFF4" />
<rect x="41" y="18" width="1" height="1" fill="#3B4252" />
<rect x="42" y="18" width="1" height="1" fill="#ECEFF4" />
<rect x="43" y="18" width="1" height="1" fill="#ECEFF4" />
<rect x="44" y="18" width="1" height="1" fill="#ECEFF4" />
<rect x="45" y="18" width="1" height="1" fill="#3B4252" />
<rect x="46" y="18" width="1" height="1" fill="#5E81AC" />
<rect x="47" y="18" width="1" height="1" fill="#2E3440" />
<rect x="1" y="19" width="1" height="1" fill="#2E3440" />
<rect x="2" y="19" width="1" height="1" fill="#5E81AC" />
<rect x="3" y="19" width="1" height="1" fill="#2E3440" />
<rect x="4" y="19" width="1" height="1" fill="#D8DEE9" />
<rect x="5" y="19" width="1" height="1" fill="#D8DEE9" />
<rect x="6" y="19" width="1" height="1" fill="#D8DEE9" />
<rect x="7" y="19" width="1" height="1" fill="#2E3440" />
<rect x="8" y="19" width="1" height="1" fill="#D8DEE9" />
<rect x="9" y="19" width="1" height="1" fill="#D8DEE9" />
<rect x="10" y="19" width="1" height="1" fill="#D8DEE9" />
<rect x="11" y="19" width="1" height="1" fill="#2E3440" />
<rect x="12" y="19" width="1" height="1" fill="#D8DEE9" />
<rect x="13" y="19" width="1" height="1" fill="#D8DEE9" />
<rect x="14" y="19" width="1" height="1" fill="#D8DEE9" />
<rect x="15" y="19" width="1" height="1" fill="#2E3440" />
<rect x="16" y="19" width="1" height="1" fill="#D8DEE9" />
<rect x="17" y="19" width="1" height="1" fill="#D8DEE9" />
<rect x="18" y="19" width="1" height="1" fill="#D8DEE9" />
<rect x="19" y="19" width="1" height="1" fill="#2E3440" />
<rect x="20" y="19" width="1" height="1" fill="#D8DEE9" />
<rect x="21" y="19" width="1" height="1" fill="#D8DEE9" />
<rect x="22" y="19" width="1" height="1" fill="#D8DEE9" />
<rect x="23" y="19" width="1" height="1" fill="#2E3440" />
<rect x="24" y="19" width="1" height="1" fill="#3B4252" />
<rect x="25" y="19" width="1" height="1" fill="#2E3440" />
<rect x="26" y="19" width="1" height="1" fill="#D8DEE9" />
<rect x="27" y="19" width="1" height="1" fill="#D8DEE9" />
<rect x="28" y="19" width="1" height="1" fill="#D8DEE9" />
<rect x="29" y="19" width="1" height="1" fill="#2E3440" />
<rect x="30" y="19" width="1" height="1" fill="#D8DEE9" />
<rect x="31" y="19" width="1" height="1" fill="#D8DEE9" />
<rect x="32" y="19" width="1" height="1" fill="#D8DEE9" />
<rect x="33" y="19" width="1" height="1" fill="#2E3440" />
<rect x="34" y="19" width="1" height="1" fill="#D8DEE9" />
<rect x="35" y="19" width="1" height="1" fill="#D8DEE9" />
<rect x="36" y="19" width="1" height="1" fill="#D8DEE9" />
<rect x="37" y="19" width="1" height="1" fill="#2E3440" />
<rect x="38" y="19" width="1" height="1" fill="#D8DEE9" />
<rect x="39" y="19" width="1" height="1" fill="#D8DEE9" />
<rect x="40" y="19" width="1" height="1" fill="#D8DEE9" />
<rect x="41" y="19" width="1" height="1" fill="#2E3440" />
<rect x="42" y="19" width="1" height="1" fill="#D8DEE9" />
<rect x="43" y="19" width="1" height="1" fill="#D8DEE9" />
<rect x="44" y="19" width="1" height="1" fill="#D8DEE9" />
<rect x="45" y="19" width="1" height="1" fill="#2E3440" />
<rect x="46" y="19" width="1" height="1" fill="#5E81AC" />
<rect x="47" y="19" width="1" height="1" fill="#2E3440" />
<rect x="1" y="20" width="1" height="1" fill="#2E3440" />
<rect x="2" y="20" width="1" height="1" fill="#5E81AC" />
<rect x="3" y="20" width="1" height="1" fill="#2E3440" />
<rect x="4" y="20" width="1" height="1" fill="#2E3440" />
<rect x="5" y="20" width="1" height="1" fill="#2E3440" />
<rect x="6" y="20" width="1" height="1" fill="#2E3440" />
<rect x="7" y="20" width="1" height="1" fill="#2E3440" />
<rect x="8" y="20" width="1" height="1" fill="#2E3440" />
<rect x="9" y="20" width="1" height="1" fill="#2E3440" />
<rect x="10" y="20" width="1" height="1" fill="#2E3440" />
<rect x="11" y="20" width="1" height="1" fill="#2E3440" />
<rect x="12" y="20" width="1" height="1" fill="#2E3440" />
<rect x="13" y="20" width="1" height="1" fill="#2E3440" />
<rect x="14" y="20" width="1" height="1" fill="#2E3440" />
<rect x="15" y="20" width="1" height="1" fill="#2E3440" />
<rect x="16" y="20" width="1" height="1" fill="#2E3440" />
<rect x="17" y="20" width="1" height="1" fill="#2E3440" />
<rect x="18" y="20" width="1" height="1" fill="#2E3440" />
<rect x="19" y="20" width="1" height="1" fill="#2E3440" />
<rect x="20" y="20" width="1" height="1" fill="#2E3440" />
<rect x="21" y="20" width="1" height="1" fill="#2E3440" />
<rect x="22" y="20" width="1" height="1" fill="#2E3440" />
<rect x="23" y="20" width="1" height="1" fill="#2E3440" />
<rect x="24" y="20" width="1" height="1" fill="#3B4252" />
<rect x="25" y="20" width="1" height="1" fill="#2E3440" />
<rect x="26" y="20" width="1" height="1" fill="#2E3440" />
<rect x="27" y="20" width="1" height="1" fill="#2E3440" />
<rect x="28" y="20" width="1" height="1" fill="#2E3440" />
<rect x="29" y="20" width="1" height="1" fill="#2E3440" />
<rect x="30" y="20" width="1" height="1" fill="#2E3440" />
<rect x="31" y="20" width="1" height="1" fill="#2E3440" />
<rect x="32" y="20" width="1" height="1" fill="#2E3440" />
<rect x="33" y="20" width="1" height="1" fill="#2E3440" />
<rect x="34" y="20" width="1" height="1" fill="#2E3440" />
<rect x="35" y="20" width="1" height="1" fill="#2E3440" />
<rect x="36" y="20" width="1" height="1" fill="#2E3440" />
<rect x="37" y="20" width="1" height="1" fill="#2E3440" />
<rect x="38" y="20" width="1" height="1" fill="#2E3440" />
<rect x="39" y="20" width="1" height="1" fill="#2E3440" />
<rect x="40" y="20" width="1" height="1" fill="#2E3440" />
<rect x="41" y="20" width="1" height="1" fill="#2E3440" />
<rect x="42" y="20" width="1" height="1" fill="#2E3440" />
<rect x="43" y="20" width="1" height="1" fill="#2E3440" />
<rect x="44" y="20" width="1" height="1" fill="#2E3440" />
<rect x="45" y="20" width="1" height="1" fill="#2E3440" />
<rect x="46" y="20" width="1" height="1" fill="#5E81AC" />
<rect x="47" y="20" width="1" height="1" fill="#2E3440" />
<rect x="1" y="21" width="1" height="1" fill="#2E3440" />
<rect x="2" y="21" width="1" height="1" fill="#5E81AC" />
<rect x="3" y="21" width="1" height="1" fill="#5E81AC" />
<rect x="4" y="21" width="1" height="1" fill="#5E81AC" />
<rect x="5" y="21" width="1" height="1" fill="#5E81AC" />
<rect x="6" y="21" width="1" height="1" fill="#5E81AC" />
<rect x="7" y="21" width="1" height="1" fill="#5E81AC" />
<rect x="8" y="21" width="1" height="1" fill="#5E81AC" />
<rect x="9" y="21" width="1" height="1" fill="#5E81AC" />
<rect x="10" y="21" width="1" height="1" fill="#5E81AC" />
<rect x="11" y="21" width="1" height="1" fill="#5E81AC" />
<rect x="12" y="21" width="1" height="1" fill="#5E81AC" />
<rect x="13" y="21" width="1" height="1" fill="#5E81AC" />
<rect x="14" y="21" width="1" height="1" fill="#5E81AC" />
<rect x="15" y="21" width="1" height="1" fill="#5E81AC" />
<rect x="16" y="21" width="1" height="1" fill="#5E81AC" />
<rect x="17" y="21" width="1" height="1" fill="#5E81AC" />
<rect x="18" y="21" width="1" height="1" fill="#5E81AC" />
<rect x="19" y="21" width="1" height="1" fill="#5E81AC" />
<rect x="20" y="21" width="1" height="1" fill="#5E81AC" />
<rect x="21" y="21" width="1" height="1" fill="#5E81AC" />
<rect x="22" y="21" width="1" height="1" fill="#5E81AC" />
<rect x="23" y="21" width="1" height="1" fill="#5E81AC" />
<rect x="24" y="21" width="1" height="1" fill="#5E81AC" />
<rect x="25" y="21" width="1" height="1" fill="#5E81AC" />
<rect x="26" y="21" width="1" height="1" fill="#5E81AC" />
<rect x="27" y="21" width="1" height="1" fill="#5E81AC" />
<rect x="28" y="21" width="1" height="1" fill="#5E81AC" />
<rect x="29" y="21" width="1" height="1" fill="#5E81AC" />
<rect x="30" y="21" width="1" height="1" fill="#5E81AC" />
<rect x="31" y="21" width="1" height="1" fill="#5E81AC" />
<rect x="32" y="21" width="1" height="1" fill="#5E81AC" />
<rect x="33" y="21" width="1" height="1" fill="#5E81AC" />
<rect x="34" y="21" width="1" height="1" fill="#5E81AC" />
<rect x="35" y="21" width="1" height="1" fill="#5E81AC" />
<rect x="36" y="21" width="1" height="1" fill="#5E81AC" />
<rect x="37" y="21" width="1" height="1" fill="#5E81AC" />
<rect x="38" y="21" width="1" height="1" fill="#5E81AC" />
<rect x="39" y="21" width="1" height="1" fill="#5E81AC" />
<rect x="40" y="21" width="1" height="1" fill="#5E81AC" />
<rect x="41" y="21" width="1" height="1" fill="#5E81AC" />
<rect x="42" y="21" width="1" height="1" fill="#5E81AC" />
<rect x="43" y="21" width="1" height="1" fill="#5E81AC" />
<rect x="44" y="21" width="1" height="1" fill="#5E81AC" />
<rect x="45" y="21" width="1" height="1" fill="#5E81AC" />
<rect x="46" y="21" width="1" height="1" fill="#5E81AC" />
<rect x="47" y="21" width="1" height="1" fill="#2E3440" />
<rect x="1" y="22" width="1" height="1" fill="#2E3440" />
<rect x="2" y="22" width="1" height="1" fill="#2E3440" />
<rect x="3" y="22" width="1" height="1" fill="#2E3440" />
<rect x="4" y="22" width="1" height="1" fill="#2E3440" />
<rect x="5" y="22" width="1" height="1" fill="#2E3440" />
<rect x="6" y="22" width="1" height="1" fill="#2E3440" />
<rect x="7" y="22" width="1" height="1" fill="#2E3440" />
<rect x="8" y="22" width="1" height="1" fill="#2E3440" />
<rect x="9" y="22" width="1" height="1" fill="#2E3440" />
<rect x="10" y="22" width="1" height="1" fill="#2E3440" />
<rect x="11" y="22" width="1" height="1" fill="#2E3440" />
<rect x="12" y="22" width="1" height="1" fill="#2E3440" />
<rect x="13" y="22" width="1" height="1" fill="#2E3440" />
<rect x="14" y="22" width="1" height="1" fill="#2E3440" />
<rect x="15" y="22" width="1" height="1" fill="#2E3440" />
<rect x="16" y="22" width="1" height="1" fill="#2E3440" />
<rect x="17" y="22" width="1" height="1" fill="#2E3440" />
<rect x="18" y="22" width="1" height="1" fill="#2E3440" />
<rect x="19" y="22" width="1" height="1" fill="#2E3440" />
<rect x="20" y="22" width="1" height="1" fill="#2E3440" />
<rect x="21" y="22" width="1" height="1" fill="#2E3440" />
<rect x="22" y="22" width="1" height="1" fill="#2E3440" />
<rect x="23" y="22" width="1" height="1" fill="#2E3440" />
<rect x="24" y="22" width="1" height="1" fill="#2E3440" />
<rect x="25" y="22" width="1" height="1" fill="#2E3440" />
<rect x="26" y="22" width="1" height="1" fill="#2E3440" />
<rect x="27" y="22" width="1" height="1" fill="#2E3440" />
<rect x="28" y="22" width="1" height="1" fill="#2E3440" />
<rect x="29" y="22" width="1" height="1" fill="#2E3440" />
<rect x="30" y="22" width="1" height="1" fill="#2E3440" />
<rect x="31" y="22" width="1" height="1" fill="#2E3440" />
<rect x="32" y="22" width="1" height="1" fill="#2E3440" />
<rect x="33" y="22" width="1" height="1" fill="#2E3440" />
<rect x="34" y="22" width="1" height="1" fill="#2E3440" />
<rect x="35" y="22" width="1" height="1" fill="#2E3440" />
<rect x="36" y="22" width="1" height="1" fill="#2E3440" />
<rect x="37" y="22" width="1" height="1" fill="#2E3440" />
<rect x="38" y="22" width="1" height="1" fill="#2E3440" />
<rect x="39" y="22" width="1" height="1" fill="#2E3440" />
<rect x="40" y="22" width="1" height="1" fill="#2E3440" />
<rect x="41" y="22" width="1" height="1" fill="#2E3440" />
<rect x="42" y="22" width="1" height="1" fill="#2E3440" />
<rect x="43" y="22" width="1" height="1" fill="#2E3440" />
<rect x="44" y="22" width="1" height="1" fill="#2E3440" />
<rect x="45" y="22" width="1" height="1" fill="#2E3440" />
<rect x="46" y="22" width="1" height="1" fill="#2E3440" />
<rect x="47" y="22" width="1" height="1" fill="#2E3440" />
</svg>